<svg xmlns="http://www.w3.org/2000/svg" viewBox="0 0 32 32">
  <rect width="32" height="32" rx="8" fill="#25D366"/>
  <path fill="white" d="M22.9 9.1A9.8 9.8 0 0 0 16 6.2C10.6 6.2 6.2 10.6 6.2 16c0 1.7.5 3.4 1.3 4.9L6 26l5.3-1.4A9.8 9.8 0 0 0 16 25.8c5.4 0 9.8-4.4 9.8-9.8 0-2.6-1-5.1-2.9-6.9zM16 24.1c-1.5 0-2.9-.4-4.1-1.1l-.3-.2-3.1.8.8-3-.2-.3A8.1 8.1 0 0 1 7.8 16c0-4.5 3.7-8.2 8.2-8.2 2.2 0 4.3.9 5.8 2.4a8.1 8.1 0 0 1 2.4 5.8c0 4.5-3.7 8.1-8.2 8.1zm4.5-6.1c-.2-.1-1.5-.7-1.7-.8-.2-.1-.4-.1-.6.1-.2.2-.6.8-.8 1-.1.2-.3.2-.5.1-1-.4-2-.9-2.7-1.8a6 6 0 0 1-1.1-1.9c-.1-.2 0-.4.1-.5l.4-.5c.1-.1.2-.3.2-.4 0-.1 0-.3-.1-.4l-.8-1.9c-.2-.5-.4-.4-.6-.5h-.5c-.2 0-.4.1-.6.3-.7.7-1 1.6-.8 2.5.3 1.3 1.2 2.5 2.5 3.6.4.3.8.6 1.2.9.8.4 1.5.7 2.4.8.6.1 1.2 0 1.6-.3.5-.4.9-1 1-1.5.1-.3 0-.5-.1-.7z"/>
</svg>
